<?xml version="1.0" encoding="UTF-8"?>
<svg width="60px" height="60px" viewBox="0 0 60 60" version="1.1" xmlns="http://www.w3.org/2000/svg" xmlns:xlink="http://www.w3.org/1999/xlink">
    <!-- Generator: Sketch 55.2 (78181) - https://sketchapp.com -->
    <title>Group 8</title>
    <desc>Created with Sketch.</desc>
    <g id="Page-1" stroke="none" stroke-width="1" fill="none" fill-rule="evenodd" stroke-linecap="round">
        <g id="2.-Langin-page-option-2" transform="translate(-236.000000, -3671.000000)" stroke-width="2.5">
            <g id="Group-8" transform="translate(238.000000, 3673.000000)">
                <path d="M27,29 L39,17" id="Path" stroke="#36D966"></path>
                <polygon id="Path" stroke="#36D966" stroke-linejoin="round" points="56 7.28571429 46.2857143 17 39 17 39 9.71428571 48.7142857 0 48.7142857 7.28571429"></polygon>
                <path d="M54,29.5 C54,44.1954545 42.1954545,56 27.5,56 C12.8045455,56 1,44.1954545 1,29.5 C1,14.8045455 12.8045455,3 27.5,3" id="Path" stroke="#2E354B" stroke-linejoin="round"></path>
                <path d="M51.8108108,18.5405405 C53.2702703,21.7027027 54,25.3513514 54,29 C54,32.6486486 53.2702703,36.2972973 51.8108108,39.4594595 C50.3513514,42.6216216 48.4054054,45.5405405 45.972973,47.972973 C43.5405405,50.4054054 40.6216216,52.3513514 37.4594595,53.8108108 C34.2972973,55.2702703 30.6486486,56 27,56 C23.3513514,56 19.7027027,55.2702703 16.5405405,53.8108108 C13.3783784,52.3513514 10.4594595,50.4054054 8.02702703,47.972973 C5.59459459,45.5405405 3.64864865,42.6216216 2.18918919,39.4594595 C0.72972973,36.2972973 0,32.6486486 0,29 C0,25.3513514 0.72972973,21.7027027 2.18918919,18.5405405 C3.64864865,15.3783784 5.59459459,12.4594595 8.02702703,10.027027 C10.4594595,7.59459459 13.3783784,5.64864865 16.5405405,4.18918919 C19.7027027,2.72972973 23.3513514,2 27,2 C30.6486486,2 34.2972973,2.72972973 37.4594595,4.18918919" id="Path" stroke="#2E354B" stroke-linejoin="round"></path>
                <path d="M39.037037,23.9444444 C39.7592593,25.6296296 40,27.3148148 40,29 C40,30.6851852 39.5185185,32.6111111 39.037037,34.0555556 C38.3148148,35.7407407 37.3518519,36.9444444 36.1481481,38.1481481 C34.9444444,39.3518519 33.5,40.3148148 32.0555556,41.037037 C30.3703704,41.7592593 28.6851852,42 27,42 C25.3148148,42 23.3888889,41.5185185 21.9444444,41.037037 C20.2592593,40.3148148 18.8148148,39.3518519 17.8518519,38.1481481 C16.6481481,36.9444444 15.6851852,35.5 14.962963,34.0555556 C14.2407407,32.3703704 14,30.6851852 14,29 C14,27.3148148 14.4814815,25.3888889 14.962963,23.9444444 C15.6851852,22.2592593 16.6481481,20.8148148 17.8518519,19.8518519 C19.0555556,18.6481481 20.5,17.6851852 21.9444444,16.962963 C23.6296296,16.2407407 25.3148148,16 27,16 C28.6851852,16 30.6111111,16.4814815 32.0555556,16.962963" id="Path" stroke="#2E354B" stroke-linejoin="round"></path>
            </g>
        </g>
    </g>
</svg>