<?xml version="1.0" encoding="UTF-8"?>
<svg width="54px" height="54px" viewBox="0 0 54 54" version="1.1" xmlns="http://www.w3.org/2000/svg" xmlns:xlink="http://www.w3.org/1999/xlink">
    <!-- Generator: Sketch 55.2 (78181) - https://sketchapp.com -->
    <title>Group 13</title>
    <desc>Created with Sketch.</desc>
    <g id="Page-1" stroke="none" stroke-width="1" fill="none" fill-rule="evenodd" stroke-linecap="round" stroke-linejoin="round">
        <g id="2.-Langin-page-option-2" transform="translate(-844.000000, -3674.000000)" stroke-width="2.5">
            <g id="Group-13" transform="translate(846.000000, 3676.000000)">
                <path d="M8.21809096,37 C6.62412127,37.4554199 4.80244164,38.5939697 3.43618191,39.9602294 C2.06992218,41.3264891 1.15908237,42.9204588 0.475952503,44.7421385 C0.0205325938,46.3361081 -0.207177361,48.1577878 0.248242548,49.7517575 C1.84221223,50.2071774 3.43618191,49.9794674 5.25786155,49.5240475 C7.07954118,49.0686276 8.67351086,47.9300778 10.0397706,46.5638181 C11.4060303,45.1975584 12.3168701,43.6035887 13,41.781909" id="Path" stroke="#36D966"></path>
                <path d="M8.49034175,21.8427982 L2,28.3242287 L8.49034175,28.3242287 C14.2852897,30.6390253 18.9212481,34.8056593 21.7028232,41.5185695 L21.7028232,48 L28.1931649,41.5185695 L24.9479941,31.7964237 C32.8291233,31.3334643 39.551263,28.3242287 44.6508172,22.0742779 C49.2867756,15.5928473 50.9093611,8.41697779 49.5185736,0.778148941 C41.4056464,-1.07368835 34.2199108,0.315189617 28.1931649,5.63922184 C22.3982169,11.6576931 19.1530461,18.3706033 18.4576523,25.3149931 L8.49034175,21.8427982 Z" id="Path" stroke="#2E354B"></path>
                <circle id="Oval" stroke="#36D966" cx="38" cy="12" r="5"></circle>
            </g>
        </g>
    </g>
</svg>