<?xml version="1.0" encoding="UTF-8"?>
<svg width="420px" height="201px" viewBox="0 0 420 201" version="1.1" xmlns="http://www.w3.org/2000/svg" xmlns:xlink="http://www.w3.org/1999/xlink">
    <!-- Generator: Sketch 55.2 (78181) - https://sketchapp.com -->
    <title>Group 26</title>
    <desc>Created with Sketch.</desc>
    <g id="Page-1" stroke="none" stroke-width="1" fill="none" fill-rule="evenodd">
        <g id="2.-Langin-page-option-2" transform="translate(-197.000000, -1888.000000)">
            <g id="Group-11" transform="translate(197.000000, 1661.000000)">
                <g id="Group-26" transform="translate(0.000000, 229.000000)">
                    <path d="M46.2974684,153.279507 L46.2974684,175.745044 C46.2974684,180.122075 49.8514271,183.67036 54.212812,183.67036 L103.19858,183.67036 C107.570104,183.67036 111.113924,180.124665 111.113924,175.745044 L111.113924,153.279507 L111.113924,21.1326131 C111.113924,16.7589606 114.669025,13.2134146 119.024316,13.2134146 L169.327296,13.2134146 C173.696085,13.2134146 177.237688,16.7553493 177.237688,21.1240165 L177.237688,57.1771045" id="Path-1778" stroke="#36D966" stroke-width="2.64"></path>
                    <rect id="Rectangle-71-Copy-3" stroke="#2E354B" stroke-width="2.64" fill="#C9F4D5" x="1.32" y="58.1415797" width="85.9865823" height="93.8179268" rx="3.96"></rect>
                    <path d="M1.32,75.3190187 L1.32,149.32085 C1.32,150.781886 2.49653788,151.959507 3.95135456,151.959507 L84.6752277,151.959507 C86.1271742,151.959507 87.3065823,150.778181 87.3065823,149.32085 L87.3065823,75.3190187 L1.32,75.3190187 Z" id="Rectangle-71-Copy-4" stroke="#2E354B" stroke-width="2.64" fill="#FFFFFF"></path>
                    <ellipse id="Oval-81-Copy" fill="#0C2324" cx="11.2436709" cy="66.7316407" rx="1.98417722" ry="1.9820122"></ellipse>
                    <ellipse id="Oval-81-Copy-2" fill="#0C2324" cx="21.8259494" cy="66.7316407" rx="1.98417722" ry="1.9820122"></ellipse>
                    <ellipse id="Oval-81-Copy-3" fill="#0C2324" cx="32.4082278" cy="66.7316407" rx="1.98417722" ry="1.9820122"></ellipse>
                    <ellipse id="Oval-223" stroke="#36D966" stroke-width="2.64" cx="44.3132911" cy="107.693226" rx="17.8575949" ry="17.8381098"></ellipse>
                    <path d="M43.6518987,107.833279 C57.0485352,120.245971 43.6518987,107.833279 57.0485355,120.24597 C60.222052,117.018957 62.1708861,112.647059 62.1708861,107.833279 C62.1708861,97.904214 53.879653,89.8551163 43.6518987,89.8551163 C43.6518989,107.833279 43.6518987,89.8551163 43.6518987,107.833279 Z" id="Oval-223" stroke="#36D966" stroke-width="2.64" fill="#C9F4D5" stroke-linecap="round" stroke-linejoin="round"></path>
                    <rect id="Rectangle-71-Copy-3" stroke="#0C2324" stroke-width="2.64" fill="#C9F4D5" x="128.307342" y="58.1415797" width="100.537215" height="93.8179268" rx="3.96"></rect>
                    <path d="M128.307342,75.3190187 L128.307342,149.32085 C128.307342,150.781987 129.483378,151.959507 130.937349,151.959507 L226.21455,151.959507 C227.666025,151.959507 228.844557,150.778528 228.844557,149.32085 L228.844557,75.3190187 L128.307342,75.3190187 Z" id="Rectangle-71-Copy-4" stroke="#2E354B" stroke-width="2.64" fill="#FFFFFF"></path>
                    <ellipse id="Oval-81-Copy" fill="#0C2324" cx="138.231013" cy="66.7316407" rx="1.98417722" ry="1.9820122"></ellipse>
                    <ellipse id="Oval-81-Copy-2" fill="#0C2324" cx="148.813291" cy="66.7316407" rx="1.98417722" ry="1.9820122"></ellipse>
                    <ellipse id="Oval-81-Copy-3" fill="#0C2324" cx="159.39557" cy="66.7316407" rx="1.98417722" ry="1.9820122"></ellipse>
                    <rect id="Rectangle-455" fill="#36D966" x="138.892405" y="89.8551163" width="78.0443038" height="6.60670732"></rect>
                    <rect id="Rectangle-455" fill="#36D966" opacity="0.269182478" x="138.892405" y="105.711214" width="78.0443038" height="6.60670732"></rect>
                    <rect id="Rectangle-455" fill="#36D966" opacity="0.269182478" x="138.892405" y="120.24597" width="52.9113924" height="6.60670732"></rect>
                    <rect id="Rectangle-71-Copy-3" stroke="#323C4D" stroke-width="2.64" fill="#C9F4D5" x="268.522532" y="50.2135309" width="100.537215" height="93.8179268" rx="3.96"></rect>
                    <path d="M268.522532,66.0696285 L268.522532,157.246462 C268.522532,158.703522 269.702432,159.887555 271.152539,159.887555 L366.42974,159.887555 C367.881033,159.887555 369.059747,158.705667 369.059747,157.246462 L369.059747,66.0696285 L268.522532,66.0696285 Z" id="Rectangle-71-Copy-4" stroke="#2E354B" stroke-width="2.64" fill="#FFFFFF"></path>
                    <ellipse id="Oval-81-Copy" fill="#0C2324" cx="278.446203" cy="58.8035919" rx="1.98417722" ry="1.9820122"></ellipse>
                    <ellipse id="Oval-81-Copy-2" fill="#0C2324" cx="289.028481" cy="58.8035919" rx="1.98417722" ry="1.9820122"></ellipse>
                    <ellipse id="Oval-81-Copy-3" fill="#0C2324" cx="299.610759" cy="58.8035919" rx="1.98417722" ry="1.9820122"></ellipse>
                    <rect id="Rectangle-455" fill="#36D966" x="277.78481" y="79.2843846" width="35.7151899" height="47.5682927" rx="2.64"></rect>
                    <rect id="Rectangle-455" fill="#36D966" opacity="0.269182478" x="322.759494" y="79.2843846" width="35.7151899" height="35.6762195" rx="2.64"></rect>
                    <polyline id="Path-1745-Copy" stroke="#36D966" stroke-width="2.64" stroke-linecap="round" stroke-linejoin="round" transform="translate(410.063291, 103.068531) rotate(-180.000000) translate(-410.063291, -103.068531) " points="417.760696 118.924628 402.126582 103.18896 418 87.2124334"></polyline>
                    <path d="M178.575949,153.279507 L178.575949,188.962091 C178.575949,193.337116 182.120182,196.883775 186.488193,196.883775 L236.802947,196.883775 C241.172758,196.883775 244.71519,193.333943 244.71519,188.962091 L244.71519,153.279507 L244.71519,7.91820338 C244.71519,3.54510041 248.262541,-4.26325641e-14 252.640041,-4.26325641e-14 L312.173596,-4.26325641e-14 C316.550371,-4.26325641e-14 320.098448,3.54187064 320.098448,7.91271283 L320.098448,49.2490558" id="Path-1778" stroke="#36D966" stroke-width="2.64"></path>
                    <path d="M371.041139,103.068531 L416.015823,103.068531" id="Line" stroke="#36D966" stroke-width="2.64" stroke-linecap="square"></path>
                </g>
            </g>
        </g>
    </g>
</svg>